<svg xmlns="http://www.w3.org/2000/svg" viewBox="0 0 64 64" role="img" aria-labelledby="title desc">
  <title id="title">Cuanto Cobrar Mantenimiento Web</title>
  <desc id="desc">Icono de la calculadora de mantenimiento web mensual</desc>
  <defs>
    <linearGradient id="bg" x1="0%" y1="0%" x2="100%" y2="100%">
      <stop offset="0%" stop-color="#145da0" />
      <stop offset="100%" stop-color="#78c0e0" />
    </linearGradient>
  </defs>
  <rect width="64" height="64" rx="16" fill="url(#bg)" />
  <path
    d="M21 19h22a3 3 0 0 1 3 3v20a3 3 0 0 1-3 3H21a3 3 0 0 1-3-3V22a3 3 0 0 1 3-3Zm1 7v14h20V26H22Zm4 3h5v2h-5v-2Zm0 5h12v2H26v-2Z"
    fill="#f8fbff"
  />
  <circle cx="42" cy="42" r="8" fill="#0d2b45" opacity="0.18" />
  <path d="M39 42h6v2h-6zM41 39h2v8h-2z" fill="#f8fbff" />
</svg>
